<?xml version="1.0" encoding="UTF-8"?>
<svg id="Capa_1" data-name="Capa 1" xmlns="http://www.w3.org/2000/svg" viewBox="0 0 2647.96195 298.8106">
  <defs>
    <style>
      .cls-1 {
        fill: #fff;
      }
    </style>
  </defs>
  <path class="cls-1" d="M567.67995,132.94528c-6.83008-53.07001-52.07007-96.14001-113.64014-85.23999-51.88989,9.19-88.55994,56.48999-79.31995,119.79999,7.69006,52.72998,52.7301,94.09003,113.71008,83.72003,51.21997-8.72003,87.20996-56.53003,79.25-118.28003ZM477.53981,240.06527c-48.65991,4.78003-68.08984-38.40997-69.41992-84.39996-1.34998-47.16003,13.31006-92.54004,56.73999-96.89001,48.28003-4.82001,67.62,38.77002,69.14001,84.21997,1.53992,46.09003-13.28003,92.83002-56.46008,97.07001ZM1319.09987,133.42526c-6.6001-53.06-50.8501-95.64996-112.30005-86.02997-52.12988,8.15002-88.59985,55.78998-81.01001,117.15002,6.64014,53.81995,50.15015,96.16998,112.53003,86.90997,52.19019-7.73999,88.5-55.90997,80.78003-118.03003ZM1232.67995,239.54531c-48.87012,8.72998-70.66016-35.58002-72.9502-80.09003-2.44995-47.75,11.41016-93.97003,54.03027-100.33002,48.2998-7.20996,69.03979,35.62,71.44995,80.22003,2.55005,47.26001-11.44019,92.85999-52.53003,100.20001ZM2496.7798,51.0353c-9.21997-1.13-70.68994-.83002-82.80981-.23999l.04004,9.56c35.72998,6.03998,35.80981,13.34998,35.76978,50.98999-.03979,29.32996,0,58.66998,0,88.01001l-4.63989-4.34003c-16.34009-20.15002-37.98999-50.46002-54.52002-72-13.83008-18.03998-37.42993-48.12-50.26001-66.23999-3.41992-4.83002-3.42993-6.16003-11.48999-6.21002-12.72998-.02997-40.1499-.51001-51.43994.35004l-.02002,9.31c22.69995,6.02997,36.72998,9.97998,36.72998,37.17999v100.02997c0,14.04999-.28003,28.15002-10.34009,34.45001-9.6499,6.03998-25.67993,7.66998-36.70996,3.27002-12.22998-4.88-14.32007-12.92004-19.34009-24.98999-17.12988-41.31-34.90991-87.43005-51.5498-129.47003-3.65015-9.21002-10.6001-24.08002-12.7002-32.91998l-12.10986-.07001c-2.8999,11.15002-54.05005,136-62.5,156.39001-7.25,17.47998-11.17993,28.98999-30.44995,32.83997-6.90015,1.38-6.02002,1.53003-7.07007,3.54999l-.01001,7.59003,76.43994.02002-.07007-10.01001c-21.33984-1.72998-31.88989-3.98999-27.97998-20.56,3.16016-13.35999,8.72998-25.32001,12.89014-37.78003l69.62012-.02997c4.25977,1.08002,19.63989,45.58002,19.61987,51.34998-6.27002,6.20001-15.08008,5.79999-25.61011,7.21002l-.23999,9.65997c39.16016,1.37,125.82007.13,168.28003.14001l-.06006-10.02002c-32.30981-3.69-36.17993-13.03998-36.17993-48.21997l.13013-100.53998,32.02979,41.31c10.31006,14.37,21.39014,28.28998,32.3501,42.35999,11.13013,14.27997,20.98999,27.87,32.27002,42.41998,5.61011,7.23999,10.21997,13.51001,15.87988,20.85999,2.48022,3.21002,5.07007,7.19,8.24023,10.78003,3.63989,4.13,7.10986,3.57001,14.44995,2.65997,3.21997-28.5-2.81006-134.32996,1.59009-165.44,2.96973-21.02997,12.16992-20.01001,31.77979-24.01001l-.01001-9.19995ZM2138.10988,166.73526l30.5-74.56,29.91992,75.22003-60.41992-.66003ZM672.72975,158.51528c12.88013,16.63,54.66016,70.31,64.46021,89.53003l55.03003.02997-2.07007-9.63-6.38013-1.32001c-10.05981-1.79999-15.34985-4.95996-22.61987-11.56-6.73999-6.09998-13.40991-15.89996-19.93994-24.37-3.26001-4.21997-36.11011-46.79999-38.04004-50.66998,27.65991-6.17999,51.59985-24.34003,48.87988-57.87-2.47998-30.52002-33.6499-42.09003-66.60986-42.09003l-91.15015-.01001v10.13c6.25.37,14.81006,1.79004,20.07007,3.98004,7.38989,3.08997,7.13989,8.92999,7.13989,18.81995v134.21002c0,19.85999-9.44995,18.85999-26.94995,20.5l-.26001,9.88,85.97021-.10999-.16016-9.58002c-19.29004-2.90002-28.05005.57001-28.05005-21.96002,0-14.75995-.58984-44.87994.3501-57.95996l20.32983.04999ZM652.03981,61.95529c16.63013.01001,36.37012-1.88,48.76001,6.17999,10.83008,7.03003,16.97998,19.26001,15.87012,36.89001-2.54004,40.23999-37.14014,41.70001-64.57007,41.41998l-.06006-84.48999ZM1811.64992,247.24527v-.19995l-.08008-7.83002c-8.18994-4.10004-15.38989.56-31.46997-13.40002-2.32007-2.01001-54.87012-68.85999-57.87012-75.34998,32.44019-8.54999,55.08008-29.54004,48.06006-63.01001-7.46997-35.54999-50.65991-36.90002-79.5498-36.90002-25.80005.01001-51.61011-.04999-77.41016.01001l.02002,10.12c23.73999,1.36005,27.21997,5.77002,27.21997,21.53003l.01001,135.47998c0,19.85004-8.91992,18.96002-26.92993,20.47998l-.3501,9.88,85.98999-.00995-.11987-9.57001c-22.27002-4.11005-28.13013.52997-28.07007-25.83002.04004-17.22998-.87012-36.76001.16992-53.67999,22.6001-3.87,22.2002,2.09998,29.93018,11.54999,9.27002,11.32001,50.22998,67.01001,55.04004,77.56h55.41992l-.01001-.83002ZM1671.19997,146.00527l-.09009-6.81.01001-76.60999c13.43994-2.92999,38.31006-.73999,48.06006,5.16998,31.22998,18.91998,21.46997,90.15002-47.97998,78.25ZM1974.39992,238.20529l-.42017,9.89001,89.97021-.04004-.14014-9.54999c-18.63989-3.85999-27.88989-1.60999-27.88989-23.34998V83.48526c.01001-23.87,8.86987-18.63995,27.68994-23.41998l.02002-8.88c-9.81006-1.63995-52.8501-.73999-66.40991-.54999-3.01001,27.66998-49.28003,121.87-55.62012,147.26001-3.15991-3.31-6.12988-13.14001-8.03003-17.94l-49.23999-125.44c-1.68994-3.38-.18994-3.96002-6.20996-3.96002h-64.87012l-.00977,3.80005.02002,5.06995,5.97998,1.89001c2.68994.54004,4.59985.73999,7.30981,1.58002,14.14014,4.32001,18.66016,14.59998,18.66016,30.71997v103.82001c0,10.92999-.28003,24.67004-6.3501,31.64001-7.19995,8.25-20.38989,7.44-23.93994,8.94-3.67993,1.53998-3.27002-.13-3.27002,9.03003v1.04999c23.97998-.03003,61,.83997,82.47998-.33002l-.08008-9.22998c-14.76001-4.17004-26.80005-3.91003-31.53003-17.90002-5.94995-17.65997-3.08984-106.65997-3.40991-135.90997l.27002-8.63c.48999-2.40002.41992-1.86005,1.02002-2.82001,3.57983,4.75,13.87988,34.29999,17.06006,42.52997,5.66992,14.67004,11.10986,29.39001,16.85986,43.92999l25.33008,65.80005c1.53003,3.88,2.88989,7.08997,4.23999,10.94995,1.53003,4.40002,1.60986,8.95001,7.33008,8.42004,4.60986-.42004,4.7998-3.83002,6.47998-8.15002,1.38989-3.53998,2.90991-7.27997,4.35986-10.83997,3.05005-7.46002,5.91016-14.30005,8.88013-21.51001l50.90991-123.84003c2.6001-4.84998-.04004-2.47998,3.84009-3.56v139.41998c0,21.13-12.69019,20.33002-31.29004,21.78003ZM1521.33986,247.76528l84.72998.33002c-.04004-15.01001.3501-7.84003-12.90991-12.61005-14.41992-5.17999-16.37012-15.67999-22.72998-31.68994-6.87012-17.32001-13.55005-34.16003-20.53003-51.65002-6.82007-17.10999-38.67993-94.51001-41.29004-104.38l-12.02002-.07001c-2.15991,9.39001-34.86011,88.35004-41.20996,104.28998-5.93994,14.91003-24.36011,65.63-34.18994,75.96002-11.44995,12.03998-21.5,6.48999-24.65015,12.53998l-.01001,7.58002,76.59009.01001-.09009-9.96997c-20.95996-1.82001-32-3.86005-28.05005-20.55005,3.21021-13.63,9.2002-25.39996,12.89014-37.73999l71.65991-.07001c3.69019,10.58002,17.64014,43.03003,17.62012,51.53003-6.38013,6.17999-15.44995,5.17999-25.57007,7.16998l-.23999,9.32001ZM1463.33986,166.69528l29.88989-74.27002c3.39014,4.34003,28.29004,66.40002,30.54004,74.97003l-60.42993-.70001ZM245.41994,159.14529l-89.05005.01001.10999,10.03998c34.29004,3.16003,33.77002,4.63,33.76001,38.38,0,18.87,1.16003,21.26001-10.03992,26.53003-42.18005,19.82996-92.51001-5.29004-98.75-70.81-4.45007-46.68005,10.57983-88.99005,44.19995-101.5,30.44995-11.33002,59.09998,2.68994,72.13989,30.69995,3.8501,8.26001,5.64014,19.5,10.33008,26.89001l10.89001.22003-1.14001-68.72003c-16.17993-.64001-9.65991-.66998-17.34998,8.57001-6.27002-1.33002-16.06995-7.13-24.62-9.58002-61.61011-17.67999-135.32007,25.88-129.6001,110.75,4.26001,63.29004,57.30005,98.77002,118.18005,90.71002,23.22009-3.08002,36.29993-10.06,55.20007-15.60004-.97998-18.53998-5.79004-55.69995,7.15991-62.60999,4.88-2.59998,12.08008-2.59998,14.34009-3.31,4.05994-1.31,4.47998,1.35999,4.23999-10.66998ZM907.83986,159.13528l.18994,10.12c34.92017,2.87,33.90015,5.5,33.66016,39.57001-.04004,4.10999-.17017,13.65002-.94995,17.37-.83008,3.92999-.01025,4.27002-10.31006,8.53998-46.63013,19.36005-92.45996-10.50995-97.71997-73.17999-10.19995-121.32996,107.86987-138.57001,125.66992-41.98999l12.13013-.01001-1.29004-69-11.75.01001-5.06006,9.02002c-16.01001-4.10004-22.83008-14.35999-56.81006-13.07001-57.73999,2.20001-102.06006,47.65997-97.8999,112.97998,4.12988,64.80005,57.02002,99.54004,117.73999,91.90002,29.75-3.75,39.05005-11.64001,55.65991-15.37-2.66992-58.04004-5.1001-63.31,25.52002-66.73999l.3501-10.16003-89.13013.01001ZM2571.49,216.42526V80.95529c0-19.59998,13.02002-18.71002,30.56006-20.56l-.01025-9.52002-91.62988-.27997-.02002,9.62c15.94995,3.62,30.54004,2.20001,30.54004,20.73999v136.73999c0,22.46002-12.75,16.98999-30.3501,20.91003l-.21997,9.00995c9.26001,1.09003,79.28003.84003,91.67993.23004l-.12988-9.36005c-18.05005-3.37-30.41992-1.22998-30.41992-22.06ZM1101.71999,238.35531c-18.11011-2.63-30.42017-1.83002-30.42017-21.93005V80.95529c0-9.02002,1.30005-13.84998,8.84009-16.82001,5.53003-2.16998,15.22998-3.23999,21.69995-3.58997l.01001-9.82001-91.66992-.12.02002,9.47998c16.22998,4.46997,30.5498,1.72998,30.5498,20.87v138c0,19.27997-12.75977,18.31-30.25,19.12l-.35986,10.01001c29.52002-.04999,62.96997.54999,91.72998-.12l-.1499-9.60999ZM329.5099,234.32528c-8.02002-3.02997-9.67004-7.31-9.67004-17.90002V83.48526c.01001-20.93994,9.71997-22.35999,30.54004-22.79999l.02002-10.13-91.64001.01001v10.15002c7.07996.53998,14.55994,2.04999,20.88,4.41998,7.79004,2.91998,9.66992,6.35999,9.66992,15.82001v138c0,20.34003-12.11987,17.40002-30.27002,19.29999l-.28992,9.82001h91.64001c-.01001-16.96002-1.80005-6.52997-20.88-13.75Z"/>
</svg>